<svg id="4f113166-9590-46d5-a686-f725a5b4de1c" data-name="Layer 1" xmlns="http://www.w3.org/2000/svg" viewBox="0 0 226.97 281.27">
  <defs>
    <style>
      .\37 d50b769-4108-462d-80df-88b7a3d978bc {
        fill: #fff;
      }
    </style>
  </defs>
  <title>churche</title>
  <path class="7d50b769-4108-462d-80df-88b7a3d978bc" d="M3365.55,550.76h83.61A5.81,5.81,0,0,0,3455,545v-41.1l9.07-9.07a5.81,5.81,0,0,0-2.13-9.58l-74.56-27V414.9h0a5.82,5.82,0,0,0-.11-1v-0.2a5.79,5.79,0,0,0-.24-0.82l-28.94-75.75V294.05h7.48a5.82,5.82,0,1,0,0-11.63h-7.48v-7.11a5.82,5.82,0,0,0-11.63,0v7.11h-5.76a5.82,5.82,0,1,0,0,11.63h5.76v43.08l-28.9,75.66a5.79,5.79,0,0,0-.24.82v0.2a5.82,5.82,0,0,0-.11,1h0v43.3l-74.56,27a5.81,5.81,0,0,0-2.13,9.58l9.06,9.07v41.09a5.81,5.81,0,0,0,5.81,5.81h110.19v0.1Zm-19.06-11.63v-38.6a6.62,6.62,0,0,1,13.24,0v38.62h-13.24Zm5.76-184.64,20.84,54.56h-41.66Zm-92.82,142.84-4.31-4.31,69.8-25.31a5.81,5.81,0,0,0,3.83-5.47V420.68h47v41.56a5.81,5.81,0,0,0,3.83,5.47l69.8,25.31-4.31,4.31a5.82,5.82,0,0,0-1.7,4.11v37.69h-72v-38.6a18.25,18.25,0,0,0-36.5,0h0v38.6h-73.67V501.45A5.81,5.81,0,0,0,3259.43,497.33Z" transform="translate(-3238.78 -269.5)"/>
</svg>
