<svg xmlns="http://www.w3.org/2000/svg" viewBox="0 0 193 70.79">
  <defs>
    <style>
      .a, .b {
        fill: #fff;
        stroke: #f2f2f2;
        stroke-miterlimit: 10;
      }

      .b {
        stroke-linecap: round;
      }
    </style>
  </defs>
  <title>superior cre</title>
  <g>
    <path class="a" d="M625.58,289.54s4.08-5.59,3.54-10.91l0-1.3s1.1,0.19,1.15-.46,0.54-3.87.54-4.41a33.49,33.49,0,0,1,.86,4.11c0.05,0.54.27,0.33,0.27,0.33a32.73,32.73,0,0,0-.54-7.62,8.51,8.51,0,0,0,.57,1.23h0.53a5.18,5.18,0,0,1,1.17.47c0.27,0.22.65-2.73-.43-5.48,0,0-.11-2-0.86-2.45a11.08,11.08,0,0,0-.05-1.79,12.48,12.48,0,0,0-1-2.76l-0.49-.35s-0.16-.69-0.22-0.85,0.32,0.19.38,0-0.37-3-1.29-3.52a2.16,2.16,0,0,0-.49-1.25,0.68,0.68,0,0,1-.32-0.65,1.33,1.33,0,0,0,.81-0.27c-0.11-.16-0.43-1-0.6-1.24a3.21,3.21,0,0,1-.76-0.7,1.13,1.13,0,0,0,0-.86,1.44,1.44,0,0,0-1.13-1,0.49,0.49,0,0,0-.16-0.59c-0.32-.22-0.43-1.08-0.76-1.08a1,1,0,0,1-.83-0.27c-0.25-.27-1.33-1.51-1.49-1.62s-0.22-.59-0.43-0.81a9.9,9.9,0,0,1-1.56-1.24c0-.22,0-0.81-0.38-0.86s0-.49,0-0.49a6.36,6.36,0,0,0-1.24-1.08,1.37,1.37,0,0,1-1.13-.76s0.43-.54.25-0.65a6.48,6.48,0,0,0-1.31-.51c-0.18,0-.22-0.22,0-0.25a1.1,1.1,0,0,0,.44-0.22l-1.27-.18s0.62-.47.29-0.84a4.05,4.05,0,0,0-1.74-.8s0.25-.44,0-0.51a2.75,2.75,0,0,0-1.16-.25,1,1,0,0,0-.4-0.91,1.91,1.91,0,0,0-1.13,0,3.1,3.1,0,0,0-1.42-1.34,0.52,0.52,0,0,0-.51.22,8.27,8.27,0,0,0-3.2-1.78,10.51,10.51,0,0,1-2.83-1.09,5.63,5.63,0,0,0,.65,1.78s-2-1.53-2.22-1.6-0.07.29-.15,0.4-0.51-.18-0.44.11-3.67-2.11-9.81-2.83a9.63,9.63,0,0,1-1.56-1.23c-0.29-.4,0,0.91,0,0.91a12,12,0,0,0-1.23-1.23,5.2,5.2,0,0,1-.94-0.65,2.43,2.43,0,0,0,0,.94,2.2,2.2,0,0,0-1-.69c-0.4,0-.11.69,0,0.84a4.81,4.81,0,0,0-.2.65,5.11,5.11,0,0,0-1.25-.47,1.24,1.24,0,0,0-.91.33,9.3,9.3,0,0,0-3.67-.11s-14.09-2.07-16.05-2.25-7.92-.65-10-1.6-5.67-1.63-6.39-2a11.36,11.36,0,0,0-2.91-1.2,6.48,6.48,0,0,0,2.07,3.27c1.09,0.69,3,3.35,3.7,3.53,0,0,6.5,3.79,6.72,3.79h-0.16s-14.87-3.87-15.16-3.84-0.15-.45,0-0.31a25.65,25.65,0,0,0,7.08,3.57c3.45,1,7.52,1.42,8,1.78a2.38,2.38,0,0,1,.62.55s-15.25.2-15.47,0.24a0.86,0.86,0,0,0-.42.34,48.41,48.41,0,0,0,9.25,3.44,98.43,98.43,0,0,0,9.81,1.55s-12.09,3.45-12.75,4.54c0,0-.18.91,2.22,1.23s7.74,1,10.57.65c0,0-6.36,2.8-6.28,3.92s3.74,1.63,4.58,1.63,10.06-1.27,12.35-2.14c0,0,.65-0.29.62-0.11s-3.16,1.89-3.34,3.41,6.68,0.51,8,0,2.91-1,2.91-1-2.47,2.29-2.18,3.7,3.23,1.23,3.23,1.23,4.1-.8,4.43-1.49-3.78,5.85-2.8,7.55,2.76,0.44,2.94.36a6.29,6.29,0,0,0,1.36-.87c0-.11-0.74,2.76,0,3.16a3.26,3.26,0,0,0,2.05,0,11.36,11.36,0,0,0,2-.94c0.07-.11.25,1.2,1.31,1.38a3.45,3.45,0,0,0,2.91-1.16l0.29-.58s0.18,1.92,1.05,2l0.87,0.11a4.56,4.56,0,0,0,1.38-1.27c0.18-.51.25,3,0.62,3.16a1.21,1.21,0,0,0,1,.17c0.32-.16.21,1.87,1.07,1.71a1.25,1.25,0,0,0,1-.43s0.11,1.07.59,1.12a1.63,1.63,0,0,0,1.39-1.23c0.11-.64-0.05,2.46.37,2.88a0.9,0.9,0,0,0,1.39-.48s-0.05,2.83.75,3,1.71-1.55,1.82-2-0.59,3.85.16,4a1.08,1.08,0,0,0,1.23-.91,16.06,16.06,0,0,0,.21,3.26c0.27,0.48,1.12,0,1.23-.32s0.59-1.28.59-1.28-0.85,3.85-.11,3.9l0.75,0.05s0.16,2.08.59,2.24,1.44-.8,1.44-0.8-0.05,2.83.21,3,1.44-1.55,1.66-2.19c0,0,.16,3.58.8,4s1.71-1.18,1.71-1.18,0.16,3.21.64,3.31,1.6-.85,1.92-1.87C624,286.38,624.54,290.5,625.58,289.54Z" transform="translate(-543.49 -219.4)"/>
    <path class="b" d="M654.42,289.54s-4.08-5.59-3.54-10.91l0-1.3s-1.1.19-1.15-.46-0.54-3.87-.54-4.41a33.49,33.49,0,0,0-.86,4.11c-0.05.54-.27,0.33-0.27,0.33s-0.22-6.65.54-9.62a4.78,4.78,0,0,0-.57-0.77h-0.53a16.32,16.32,0,0,1-1.17,2.47c-0.27.22-.65-1.73,0.43-4.48a3,3,0,0,1,.86-1.95,8.29,8.29,0,0,1,.05-1.54,11.26,11.26,0,0,1,1-2.63,3.32,3.32,0,0,1,.49-0.29s0.16-.66.22-0.82-0.32.21-.38,0,0.37-3,1.29-3.51a2.15,2.15,0,0,1,.49-1.24,0.68,0.68,0,0,0,.32-0.65,1.33,1.33,0,0,1-.81-0.27c0.11-.16.43-1,0.6-1.24a3.21,3.21,0,0,0,.76-0.7,1.13,1.13,0,0,1,0-.86,1.44,1.44,0,0,1,1.13-1,0.49,0.49,0,0,1,.16-0.59c0.32-.22.43-1.08,0.76-1.08a1,1,0,0,0,.83-0.27c0.25-.27,1.33-1.51,1.49-1.62s0.22-.59.43-0.81a9.9,9.9,0,0,0,1.56-1.24c0-.22,0-0.81.38-0.86s0-.49,0-0.49a6.36,6.36,0,0,1,1.24-1.08,1.37,1.37,0,0,0,1.13-.76s-0.43-.54-0.25-0.65a6.48,6.48,0,0,1,1.31-.51c0.18,0,.22-0.22,0-0.25a1.1,1.1,0,0,1-.44-0.22l1.27-.18s-0.62-.47-0.29-0.84a4.05,4.05,0,0,1,1.74-.8s-0.25-.44,0-0.51a2.75,2.75,0,0,1,1.16-.25,1,1,0,0,1,.4-0.91,1.91,1.91,0,0,1,1.13,0,3.1,3.1,0,0,1,1.42-1.34,0.52,0.52,0,0,1,.51.22,8.27,8.27,0,0,1,3.2-1.78,10.51,10.51,0,0,0,2.83-1.09,5.63,5.63,0,0,1-.65,1.78s2-1.53,2.22-1.6,0.07,0.29.15,0.4,0.51-.18.44,0.11,3.67-2.11,9.81-2.83a9.63,9.63,0,0,0,1.56-1.23c0.29-.4,0,0.91,0,0.91a12,12,0,0,1,1.23-1.23,5.2,5.2,0,0,0,.94-0.65,2.43,2.43,0,0,1,0,.94,2.2,2.2,0,0,1,1-.69c0.4,0,.11.69,0,0.84a4.81,4.81,0,0,1,.2.65,5.11,5.11,0,0,1,1.25-.47,1.24,1.24,0,0,1,.91.33,9.3,9.3,0,0,1,3.67-.11s14.09-2.07,16.05-2.25,7.92-.65,10-1.6,5.67-1.63,6.39-2a11.36,11.36,0,0,1,2.91-1.2,6.48,6.48,0,0,1-2.07,3.27,21.8,21.8,0,0,1-3.7,2s-6.5,2.29-6.72,2.29h0.16s14.87-2.37,15.16-2.34,0.15,0.3,0,.44a22.82,22.82,0,0,1-7.08,3.94c-3.45,1-7.52,1.61-8,2a1.73,1.73,0,0,0-.62.64s15.25,0.25,15.47.28a0.87,0.87,0,0,1,.42.36,48.1,48.1,0,0,1-9.25,3.45,99.12,99.12,0,0,1-9.81,1.56s12.09,3.45,12.75,4.54c0,0,.18.91-2.22,1.23s-7.74,1-10.57.65c0,0,6.36,2.8,6.28,3.92s-3.74,1.63-4.58,1.63-10.06-1.27-12.35-2.14c0,0-.65-0.29-0.62-0.11s3.16,1.89,3.34,3.41-6.68.51-8,0-2.91-1-2.91-1,2.47,2.29,2.18,3.7-3.23,1.23-3.23,1.23-4.1-.8-4.43-1.49,3.78,5.85,2.8,7.55-2.76.44-2.94,0.36a6.29,6.29,0,0,1-1.36-.87c0-.11.74,2.76,0,3.16a3.26,3.26,0,0,1-2.05,0,11.36,11.36,0,0,1-2-.94c-0.07-.11-0.25,1.2-1.31,1.38a3.45,3.45,0,0,1-2.91-1.16l-0.29-.58s-0.18,1.92-1.05,2l-0.87.11a4.56,4.56,0,0,1-1.38-1.27c-0.18-.51-0.25,3-0.62,3.16a1.21,1.21,0,0,1-1,.17c-0.32-.16-0.21,1.87-1.07,1.71a1.25,1.25,0,0,1-1-.43s-0.11,1.07-.59,1.12a1.63,1.63,0,0,1-1.39-1.23c-0.11-.64.05,2.46-0.37,2.88a0.9,0.9,0,0,1-1.39-.48s0.05,2.83-.75,3-1.71-1.55-1.82-2,0.59,3.85-.16,4a1.08,1.08,0,0,1-1.23-.91,16.06,16.06,0,0,1-.21,3.26c-0.27.48-1.12,0-1.23-.32s-0.59-1.28-.59-1.28,0.85,3.85.11,3.9l-0.75.05s-0.16,2.08-.59,2.24-1.44-.8-1.44-0.8,0.05,2.83-.21,3-1.44-1.55-1.66-2.19c0,0-.16,3.58-0.8,4s-1.71-1.18-1.71-1.18-0.16,3.21-.64,3.31-1.6-.85-1.92-1.87C656,286.38,655.46,290.5,654.42,289.54Z" transform="translate(-543.49 -219.4)"/>
  </g>
</svg>
